<svg width="512" height="512" viewBox="0 0 512 512" fill="none" xmlns="http://www.w3.org/2000/svg">
<path d="M249.18 328.324C239.392 343.708 230.001 358.758 208.958 373.379C197.702 381.269 171.794 396.685 134.968 396.685C64.709 396.685 8 345.605 8 255.801C8 177.315 61.345 115.315 136.466 115.315C166.9 115.315 193.94 125.836 213.853 141.619C232.267 156.269 240.891 170.923 248.416 184.075L195.836 210.348C192.074 201.722 187.546 192.699 175.923 182.942C163.139 172.787 150.383 169.79 139.463 169.79C96.642 169.79 74.099 209.615 74.099 253.935C74.099 312.173 103.799 341.078 139.463 341.078C174.026 341.078 187.943 317.036 196.937 301.652L249.18 328.325V328.324ZM433.374 123.574H504L411.963 388.794H344.366L253.462 123.574H324.087L378.93 312.174L433.374 123.574Z" fill="black"/>
</svg>
