<svg width="552" height="552" viewBox="0 0 552 552" fill="none" xmlns="http://www.w3.org/2000/svg">
<path fill-rule="evenodd" clip-rule="evenodd" d="M276 552C428.431 552 552 428.431 552 276C552 123.569 428.431 0 276 0C123.569 0 0 123.569 0 276C0 428.431 123.569 552 276 552ZM268.893 342.441L269.299 341.803L221.795 317.536L221.698 317.702C213.517 331.706 200.839 353.407 169.536 353.407C137.108 353.407 110.102 327.108 110.102 274.121C110.102 233.797 130.6 197.563 169.536 197.563C179.465 197.563 191.064 200.29 202.688 209.529C213.256 218.406 217.374 226.616 220.794 234.464L268.604 210.56C261.762 198.594 253.92 185.261 237.177 171.932C219.07 157.572 194.484 148 166.811 148C98.5052 148 50 204.41 50 275.819C50 357.526 101.564 404 165.449 404C198.934 404 222.491 389.974 232.726 382.795C251.569 369.695 260.136 356.216 268.893 342.441ZM501 155.514H436.781L387.277 327.109L337.41 155.514H273.192L355.849 396.821H417.313L501 155.514Z" fill="black"/>
</svg>
